<?xml version="1.0" encoding="utf-8"?>
<!-- Generator: Adobe Illustrator 24.2.1, SVG Export Plug-In . SVG Version: 6.00 Build 0)  -->
<svg version="1.1" id="Layer_1" xmlns="http://www.w3.org/2000/svg" xmlns:xlink="http://www.w3.org/1999/xlink" x="0px" y="0px"
	 viewBox="0 0 52 65" style="enable-background:new 0 0 52 65;" xml:space="preserve">
<style type="text/css">
	.st0{fill:#0033A0;}
</style>
<g>
	<path class="st0" d="M14.6,12.1H14c-0.5,0-1,0.4-1,1v32c0,0.5,0.5,1,1,1h24c0.5,0,1-0.5,1-1v-32c0-0.6-0.5-1-1-1h-0.6v1
		c0,1.7-1.3,3-3,3H17.6c-1.7,0-3-1.3-3-3V12.1z M19.5,17.5h13.1c0.6,0,1,0.4,1,1s-0.4,1-1,1H19.5c-0.6,0-1-0.4-1-1
		S18.9,17.5,19.5,17.5z M19.5,22.7h13.1c0.6,0,1,0.4,1,1s-0.4,1-1,1H19.5c-0.6,0-1-0.4-1-1S18.9,22.7,19.5,22.7z M19.5,28h13.1
		c0.6,0,1,0.4,1,1s-0.4,1-1,1H19.5c-0.6,0-1-0.4-1-1S18.9,28,19.5,28z M19.5,33.3h13.1c0.6,0,1,0.4,1,1s-0.4,1-1,1H19.5
		c-0.6,0-1-0.4-1-1S18.9,33.3,19.5,33.3z M19.5,38.6h13.1c0.6,0,1,0.4,1,1s-0.4,1-1,1H19.5c-0.6,0-1-0.4-1-1S18.9,38.6,19.5,38.6z"
		/>
	<path class="st0" d="M42,8.1h-4.6v2H38c1.7,0,3,1.3,3,3v32c0,1.7-1.3,3-3,3H14c-1.7,0-3-1.3-3-3v-32c0-1.7,1.3-3,3-3h0.6v-2H10
		c-0.5,0-1,0.4-1,1V49c0,0.6,0.5,1,1,1h32c0.5,0,1-0.4,1-1V9.1C43,8.5,42.5,8.1,42,8.1z"/>
	<path class="st0" d="M17.6,14.1h16.8c0.5,0,1-0.4,1-1V6.4c0-0.6-0.5-1-1-1h-4.1V5.3C30.3,3.8,29.5,2,26,2c-3.7,0-4.3,2.1-4.3,3.3
		v0.1h-4.1c-0.5,0-1,0.4-1,1v6.7C16.6,13.6,17.1,14.1,17.6,14.1z"/>
</g>
</svg>
