<?xml version="1.0" encoding="utf-8"?>
<!-- Generator: Adobe Illustrator 24.2.1, SVG Export Plug-In . SVG Version: 6.00 Build 0)  -->
<svg version="1.1" xmlns="http://www.w3.org/2000/svg" xmlns:xlink="http://www.w3.org/1999/xlink" x="0px" y="0px"
	 viewBox="0 0 100 125" style="enable-background:new 0 0 100 125;" xml:space="preserve">
<style type="text/css">
	.st0{fill:#0033A0;}
</style>
<g id="Layer_2">
</g>
<g id="Layer_1">
	<g>
		<path class="st0" d="M77.1,40.8l-1.9-0.2c-0.7-0.1-1.3-0.6-1.6-1.2l0,0c-0.3-0.7-0.2-1.4,0.3-2l1.2-1.5c0.2-0.2,0.2-0.6,0-0.8
			l-2-2c-0.2-0.2-0.5-0.2-0.8,0l-1.5,1.2c-0.6,0.5-1.3,0.5-2,0.3l0,0c-0.7-0.3-1.2-0.9-1.2-1.6l-0.2-1.9c0-0.3-0.3-0.5-0.6-0.5H64
			c-0.3,0-0.5,0.2-0.6,0.5L63.2,33c-0.1,0.7-0.6,1.3-1.2,1.6l0,0c-0.7,0.3-1.4,0.2-2-0.3l-1.5-1.2c-0.2-0.2-0.6-0.2-0.8,0l-2,2
			c-0.2,0.2-0.2,0.5,0,0.8l1.2,1.5c0.5,0.6,0.5,1.3,0.3,2l0,0c-0.3,0.7-0.9,1.2-1.6,1.2l-1.9,0.2c-0.3,0-0.5,0.3-0.5,0.6v2.8
			c0,0.3,0.2,0.5,0.5,0.6l1.9,0.2c0.7,0.1,1.3,0.6,1.6,1.2l0,0c0.3,0.7,0.2,1.4-0.3,2l-1.2,1.5c-0.2,0.2-0.2,0.6,0,0.8l2,2
			c0.2,0.2,0.5,0.2,0.8,0l1.5-1.2c0.6-0.5,1.3-0.5,2-0.3l0,0c0.7,0.3,1.2,0.9,1.2,1.6l0.2,1.9c0,0.3,0.3,0.5,0.6,0.5h2.8
			c0.3,0,0.5-0.2,0.6-0.5l0.2-1.9c0.1-0.7,0.6-1.3,1.2-1.6l0,0c0.7-0.3,1.4-0.2,2,0.3l1.5,1.2c0.2,0.2,0.6,0.2,0.8,0l2-2
			c0.2-0.2,0.2-0.5,0-0.8l-1.2-1.5c-0.5-0.6-0.5-1.3-0.3-2l0,0c0.3-0.7,0.9-1.2,1.6-1.2l1.9-0.2c0.3,0,0.5-0.3,0.5-0.6v-2.8
			C77.6,41.1,77.3,40.9,77.1,40.8z M65.4,48.1c-2.9,0-5.3-2.4-5.3-5.3c0-2.9,2.4-5.3,5.3-5.3c2.9,0,5.3,2.4,5.3,5.3
			C70.7,45.7,68.3,48.1,65.4,48.1z"/>
		<circle class="st0" cx="65.4" cy="42.8" r="3.2"/>
		<path class="st0" d="M47.7,33.1H37c-0.5-1.5-1.9-2.5-3.6-2.5c-1.6,0-3,1-3.6,2.5h-2.9c-0.7,0-1.3,0.6-1.3,1.3s0.6,1.3,1.3,1.3h2.9
			c0.5,1.5,1.9,2.5,3.6,2.5c1.6,0,3-1,3.6-2.5h10.7c0.7,0,1.3-0.6,1.3-1.3S48.4,33.1,47.7,33.1z"/>
		<path class="st0" d="M47.7,41.5h-2.9c-0.6-1.5-2-2.5-3.6-2.5s-3,1-3.6,2.5H26.9c-0.7,0-1.3,0.6-1.3,1.3s0.6,1.3,1.3,1.3h10.7
			c0.5,1.5,1.9,2.5,3.6,2.5c1.6,0,3-1,3.6-2.5h2.9c0.7,0,1.3-0.6,1.3-1.3S48.4,41.5,47.7,41.5z"/>
		<path class="st0" d="M47.7,49.9H37c-0.5-1.5-1.9-2.5-3.6-2.5c-1.6,0-3,1-3.6,2.5h-2.9c-0.7,0-1.3,0.6-1.3,1.3s0.6,1.3,1.3,1.3h2.9
			c0.5,1.5,1.9,2.5,3.6,2.5c1.6,0,3-1,3.6-2.5h10.7c0.7,0,1.3-0.6,1.3-1.3S48.4,49.9,47.7,49.9z"/>
		<path class="st0" d="M98.6,77l-6.1-11.9c-0.3-0.6-0.5-1.3-0.5-1.9v-38c0-5.1-4.1-9.2-9.2-9.2H20.4c-5.1,0-9.2,4.1-9.2,9.2v38
			c0,0.7-0.2,1.3-0.5,1.9L4.6,77c-1.7,3.3,0.7,7.1,4.4,7.1h85.2C97.9,84.1,100.2,80.2,98.6,77z M60.4,75.4H42.8
			c-1.3,0-2.4-1.1-2.4-2.4s1.1-2.4,2.4-2.4h17.5c1.3,0,2.4,1.1,2.4,2.4C62.7,74.3,61.6,75.4,60.4,75.4z M83.7,61.2H19.5V25.1
			c0-0.5,0.4-0.8,0.8-0.8h62.5c0.5,0,0.8,0.4,0.8,0.8L83.7,61.2L83.7,61.2z"/>
	</g>
</g>
</svg>
