<svg id="Layer_1" data-name="Layer 1" xmlns="http://www.w3.org/2000/svg" viewBox="0 0 219.16 224.87"><defs><style>.cls-1{fill:#fff;}</style></defs><path class="cls-1" d="M-162.64,265.43s-41.64-2.16-50.75,50.32c0,0-3.32,36-8.53,66.07,0,0-5.2,41.35-29.49,43.08,0,0-10.55.26-7.08,8h86.31S-179.6,463.65-150,466c0,0,27.28,2.9,25-33.25H-43.8s3.26,0,3.76-4c0,0-.5-3.11-6.43-3.18,0,0-33.33-4.77-35.93-72,0,0,3.47-85.9-55.08-88.06,0,0,.67-22.11-12.14-24.28C-149.62,241.14-162.2,241.8-162.64,265.43Z" transform="translate(259.19 -241.14)"/></svg>