<?xml version="1.0" encoding="utf-8"?>
<!-- Generator: Adobe Illustrator 24.2.1, SVG Export Plug-In . SVG Version: 6.00 Build 0)  -->
<svg version="1.1" id="Layer_1" xmlns="http://www.w3.org/2000/svg" xmlns:xlink="http://www.w3.org/1999/xlink" x="0px" y="0px"
	 viewBox="0 0 1024 1280" style="enable-background:new 0 0 1024 1280;" xml:space="preserve">
<style type="text/css">
	.st0{fill:#0033A0;}
</style>
<g>
	<polygon class="st0" points="605,770 605,868.2 678.4,868.2 678.4,908.2 345.6,908.2 345.6,868.2 419,868.2 419,770 74.8,770 
		74.8,659.9 949.3,659.9 949.3,770 	"/>
	<path class="st0" d="M74.8,116.8v513.1h874.5V116.8H74.8z M496,385c0,85.5-69.5,155-155,155s-155-69.5-155-155s69.5-155,155-155h15
		v140h140V385z M506,338H388V220h15c56.8,0,103,46.2,103,103V338z M609,525h-40V421h40V525z M726,525h-40V347h40V525z M843,525h-40
		V246h40V525z"/>
</g>
</svg>
