<svg xmlns="http://www.w3.org/2000/svg" xmlns:xlink="http://www.w3.org/1999/xlink" width="15.006" height="15.974" viewBox="0 0 15.006 15.974"><defs><style>.a{fill:#efefef;}.b{clip-path:url(#a);}.c{fill:#686868;fill-rule:evenodd;}</style><clipPath id="a"><path class="a" d="M0-75.9H15.006v14.845H0Z" transform="translate(0 67)"/></clipPath></defs><g class="b" transform="translate(0 10.026)"><g transform="translate(0 -9.639)"><path class="c" d="M32.716,27.227h2.3v1.822H37.51V27.227h5.417v1.822h2.541V27.227h2.253V41.37H32.716Zm2.972-1.055h1.1V28.33h-1.1Zm7.958,0h1.1V28.33h-1.1Zm-9.972,3.883H46.763V40.363H33.674Zm3.068,1.1h.815v1.87h-.815Zm-2.014,6.232h.815v1.87h-.815Zm8.15,0h.815v1.87h-.815Zm-2.062,0h.815v1.87h-.815Zm-2.014,0h.815v1.87H38.8Zm-2.062,0h.815v1.87h-.815Zm-2.014-3.116h.815v1.87h-.815Zm10.212,0h.815v1.87h-.815Zm-2.062,0h.815v1.87h-.815Zm-2.062,0h.815v1.87h-.815Zm-2.014,0h.815v1.87H38.8Zm-2.062,0h.815v1.87h-.815Zm8.2-3.116h.815v1.87h-.815Zm-2.062,0h.815v1.87h-.815Zm-2.062,0h.815v1.87h-.815Zm-2.014,0h.815v1.87H38.8Z" transform="translate(-32.716 -26.173)"/></g></g></svg>