<svg xmlns="http://www.w3.org/2000/svg" width="36.958" height="36.839" viewBox="0 0 36.958 36.839"><defs><style>.a{fill:#df0303;stroke:#df0303;}</style></defs><g transform="translate(-0.436 -0.536)"><path class="a" d="M36.536,31.373,22.421,3.144a3.825,3.825,0,0,0-6.818,0L1.369,31.373a3.79,3.79,0,0,0,1.675,5.143,4.8,4.8,0,0,0,1.794.359H33.067a3.779,3.779,0,0,0,3.828-3.828A3.821,3.821,0,0,0,36.536,31.373Zm-2.273,2.392a1.316,1.316,0,0,1-1.2.718H4.838A1.382,1.382,0,0,1,3.4,33.047a.9.9,0,0,1,.12-.6L17.637,4.22a1.394,1.394,0,0,1,1.914-.6,1.441,1.441,0,0,1,.6.6L34.263,32.449A1.077,1.077,0,0,1,34.263,33.765Z" transform="translate(0 0)"/><path class="a" d="M16.2,10A1.13,1.13,0,0,0,15,11.2V23.158a1.2,1.2,0,1,0,2.392,0V11.2A1.13,1.13,0,0,0,16.2,10Z" transform="translate(2.756 1.756)"/><circle class="a" cx="1.196" cy="1.196" r="1.196" transform="translate(17.756 28.502)"/></g></svg>