<svg xmlns="http://www.w3.org/2000/svg" width="75.2" height="73.35" viewBox="0 0 75.2 73.35"><defs><style>.a{fill:#0033a0;}</style></defs><g transform="translate(-12.4 -13.35)"><path class="a" d="M51.1,16.4a.6.6,0,0,0,.4.1,1.025,1.025,0,0,0,1-1,.6.6,0,0,0-.1-.4c-.1-.1-.1-.2-.2-.3s-.2-.2-.3-.2a.913.913,0,0,0-1.1.2c-.1.1-.2.2-.2.3a.6.6,0,0,0-.1.4.908.908,0,0,0,.3.7C50.9,16.3,51,16.4,51.1,16.4Z"/><path class="a" d="M55.3,81a2.506,2.506,0,0,0-.4-.7,4.313,4.313,0,0,0-1.1-1.1c-.2-.1-.5-.3-.7-.4a1.884,1.884,0,0,0-.8-.2,4.25,4.25,0,0,0-3.7,1.1,2.651,2.651,0,0,0-.5.6c-.1.2-.3.5-.4.7a1.884,1.884,0,0,0-.2.8,3.25,3.25,0,0,0,0,1.6c.1.3.1.5.2.8a2.506,2.506,0,0,0,.4.7c.2.2.3.4.5.6a4.1,4.1,0,0,0,5.8,0,2.651,2.651,0,0,0,.5-.6,2.507,2.507,0,0,0,.4-.7,1.884,1.884,0,0,0,.2-.8,3.25,3.25,0,0,0,0-1.6A2.354,2.354,0,0,0,55.3,81Z"/><path class="a" d="M28.1,29.9a3.328,3.328,0,0,0-.6-1,3.45,3.45,0,0,0-.8-.9c-.3-.3-.6-.5-.9-.8a10.908,10.908,0,0,0-1.1-.6,2.607,2.607,0,0,0-1.1-.3A5.918,5.918,0,0,0,18.1,28c-.3.3-.5.6-.8.9-.2.3-.4.7-.6,1a2.607,2.607,0,0,0-.3,1.1,4.869,4.869,0,0,0-.1,1.2,6.224,6.224,0,0,0,1.8,4.3c.3.3.6.5.9.8.3.2.7.4,1,.6a2.607,2.607,0,0,0,1.1.3,4.869,4.869,0,0,0,1.2.1,4.869,4.869,0,0,0,1.2-.1c.4-.1.8-.2,1.1-.3a5.973,5.973,0,0,0,1.1-.6,6.47,6.47,0,0,0,.9-.8c.3-.3.5-.6.8-.9a10.908,10.908,0,0,0,.6-1.1,2.607,2.607,0,0,0,.3-1.1,4.869,4.869,0,0,0,.1-1.2,4.869,4.869,0,0,0-.1-1.2A1.54,1.54,0,0,0,28.1,29.9Z"/><path class="a" d="M83.4,64.6a2.186,2.186,0,0,0-.3-.5,1.756,1.756,0,0,0-.4-.5,3.16,3.16,0,0,0-2.8-.8,1.421,1.421,0,0,0-.6.2,2.186,2.186,0,0,0-.5.3,1.756,1.756,0,0,0-.5.4,2.181,2.181,0,0,0-.4.5c-.1.2-.2.3-.3.5s-.1.4-.2.6c0,.2-.1.4-.1.6a1.268,1.268,0,0,0,.1.6,1.421,1.421,0,0,0,.2.6,2.186,2.186,0,0,0,.3.5,1.756,1.756,0,0,0,.4.5,2.181,2.181,0,0,0,.5.4c.2.1.3.2.5.3s.4.1.6.2c.2,0,.4.1.6.1a1.268,1.268,0,0,0,.6-.1,1.421,1.421,0,0,0,.6-.2,2.186,2.186,0,0,0,.5-.3,1.756,1.756,0,0,0,.5-.4,2.181,2.181,0,0,0,.4-.5c.1-.2.2-.3.3-.5s.1-.4.2-.6c0-.2.1-.4.1-.6a1.268,1.268,0,0,0-.1-.6A6.372,6.372,0,0,0,83.4,64.6Z"/><path class="a" d="M27.2,63.9a4.053,4.053,0,0,0-.5-.9c-.2-.3-.4-.5-.6-.8a5.172,5.172,0,0,0-4.6-1.4l-.9.3a4.053,4.053,0,0,0-.9.5c-.3.2-.5.4-.8.6a5.547,5.547,0,0,0-.6.8c-.2.3-.3.6-.5.9l-.3.9a5.05,5.05,0,0,0,0,2l.3.9a4.053,4.053,0,0,0,.5.9c.2.3.4.5.6.8a5.547,5.547,0,0,0,.8.6c.3.2.6.3.9.5l.9.3a3.4,3.4,0,0,0,1,.1,5.075,5.075,0,0,0,3.6-1.5,5.547,5.547,0,0,0,.6-.8c.2-.3.3-.6.5-.9l.3-.9a5.05,5.05,0,0,0,0-2Z"/><path class="a" d="M79.5,33.9c.1.1.2.1.3.2a.6.6,0,0,0,.4.1h.4a2.051,2.051,0,0,0,2-2v-.4c0-.1-.1-.3-.1-.4-.1-.1-.1-.2-.2-.3l-.3-.3a1.789,1.789,0,0,0-1.8-.5c-.1,0-.3.1-.4.1-.1.1-.2.1-.3.2s-.2.2-.3.2c-.2.1-.2.2-.3.3s-.1.2-.2.3a.6.6,0,0,0-.1.4v.4a1.816,1.816,0,0,0,.6,1.4A.265.265,0,0,0,79.5,33.9Z"/><path class="a" d="M40.8,17.4a10.909,10.909,0,0,0-.6-1.1,3.915,3.915,0,0,0-.8-1,3.915,3.915,0,0,0-1-.8c-.4-.2-.7-.4-1.1-.6a5.638,5.638,0,0,0-1.2-.4,5.708,5.708,0,0,0-2.6,0,5.638,5.638,0,0,0-1.2.4,10.908,10.908,0,0,0-1.1.6,3.915,3.915,0,0,0-1,.8,3.915,3.915,0,0,0-.8,1c-.2.4-.4.7-.6,1.1a5.638,5.638,0,0,0-.4,1.2,5.7,5.7,0,0,0-.1,1.3,7.022,7.022,0,0,0,1.9,4.7,6.655,6.655,0,0,0,4.7,1.9,7.022,7.022,0,0,0,4.7-1.9,6.655,6.655,0,0,0,1.9-4.7,5.7,5.7,0,0,0-.1-1.3A4.494,4.494,0,0,1,40.8,17.4Z"/><path class="a" d="M67.6,74.6a6.373,6.373,0,0,1-.7.2l-.6.3a2.181,2.181,0,0,0-.5.4,1.756,1.756,0,0,0-.4.5l-.3.6a1.445,1.445,0,0,0-.2.7c0,.2-.1.5-.1.7a3.74,3.74,0,0,0,1,2.5,1.756,1.756,0,0,0,.5.4l.6.3a1.445,1.445,0,0,0,.7.2c.2,0,.5.1.7.1a3.946,3.946,0,0,0,2.5-1,3.471,3.471,0,0,0,1-2.5,3.946,3.946,0,0,0-1-2.5A3.638,3.638,0,0,0,67.6,74.6Z"/><path class="a" d="M19.1,54.5c.4-.1.7-.2,1-.3a4.671,4.671,0,0,0,1-.5,2.7,2.7,0,0,0,.8-.7,5.7,5.7,0,0,0,1.6-3.9,5.946,5.946,0,0,0-1.6-4,3.114,3.114,0,0,0-.9-.7,3.128,3.128,0,0,0-1-.5,3.81,3.81,0,0,0-1-.3,5.381,5.381,0,0,0-5,1.5,5.008,5.008,0,0,0-.7.8,3.128,3.128,0,0,0-.5,1,3.81,3.81,0,0,0-.3,1,4.1,4.1,0,0,0-.1,1.1A5.521,5.521,0,0,0,14,52.9a5.76,5.76,0,0,0,4,1.6A2.045,2.045,0,0,0,19.1,54.5Z"/><path class="a" d="M86.9,47.2a2.737,2.737,0,0,0-3.6,0,1.381,1.381,0,0,0-.3.4.758.758,0,0,0-.2.4.9.9,0,0,0-.1.5c0,.2-.1.3-.1.5a.9.9,0,0,0,.1.5c0,.2.1.3.1.5.1.2.1.3.2.4s.2.3.3.4a2.41,2.41,0,0,0,1.8.7,2.875,2.875,0,0,0,1.8-.7,1.381,1.381,0,0,0,.3-.4.758.758,0,0,0,.2-.4.9.9,0,0,0,.1-.5c0-.2.1-.3.1-.5A3.115,3.115,0,0,0,86.9,47.2Z"/><path class="a" d="M39,76.3c-.1-.3-.3-.5-.4-.8a6.01,6.01,0,0,0-1.3-1.3,2.01,2.01,0,0,0-.8-.4l-.9-.3a4.641,4.641,0,0,0-4.1,1.2,4.349,4.349,0,0,0-.6.7,2.01,2.01,0,0,0-.4.8l-.3.9a2.769,2.769,0,0,0-.1.9,4.626,4.626,0,0,0,1.3,3.2,4.816,4.816,0,0,0,3.2,1.3,2.769,2.769,0,0,0,.9-.1l.9-.3c.3-.1.5-.3.8-.4a4.683,4.683,0,0,0,2-3.8,2.769,2.769,0,0,0-.1-.9C39.2,76.9,39.1,76.6,39,76.3Z"/><path class="a" d="M68.3,21.5a1.606,1.606,0,0,0,1.1-.5.55.55,0,0,0,.3-.5,1.268,1.268,0,0,0,.1-.6,1.606,1.606,0,0,0-.5-1.1,1.569,1.569,0,0,0-2.2,0,1.5,1.5,0,0,0-.4,1.1,2.1,2.1,0,0,0,.4,1.1A2.078,2.078,0,0,0,68.3,21.5Z"/></g></svg>