<?xml version="1.0" encoding="utf-8"?>
<!-- Generator: Adobe Illustrator 24.2.1, SVG Export Plug-In . SVG Version: 6.00 Build 0)  -->
<svg version="1.1"
	 id="Layer_1" xmlns:cc="http://creativecommons.org/ns#" xmlns:dc="http://purl.org/dc/elements/1.1/" xmlns:inkscape="http://www.inkscape.org/namespaces/inkscape" xmlns:rdf="http://www.w3.org/1999/02/22-rdf-syntax-ns#" xmlns:sodipodi="http://sodipodi.sourceforge.net/DTD/sodipodi-0.dtd" xmlns:svg="http://www.w3.org/2000/svg"
	 xmlns="http://www.w3.org/2000/svg" xmlns:xlink="http://www.w3.org/1999/xlink" x="0px" y="0px" viewBox="0 0 512 640"
	 style="enable-background:new 0 0 512 640;" xml:space="preserve">
<style type="text/css">
	.st0{fill:#17C239;}
	.st1{fill:#FFFFFF;}
</style>
<circle class="st0" cx="255.5" cy="319" r="249"/>
<path class="st1" d="M381,190.4c-7.4-0.1-14.5,3.2-19.3,8.8l-159,180.4l-72.3-73.1c-9.6-10-25.6-10.3-35.6-0.7
	c-10,9.6-10.3,25.6-0.7,35.6c0.2,0.2,0.3,0.3,0.5,0.5l91.3,92.3c9.8,9.9,25.7,10,35.6,0.2c0.4-0.4,0.8-0.8,1.2-1.2l176.9-200.6
	c9.3-10.3,8.6-26.2-1.7-35.6C393.2,192.8,387.2,190.4,381,190.4z"/>
</svg>
