<?xml version="1.0" encoding="utf-8"?>
<!-- Generator: Adobe Illustrator 24.2.1, SVG Export Plug-In . SVG Version: 6.00 Build 0)  -->
<svg version="1.1" id="Layer_1" xmlns="http://www.w3.org/2000/svg" xmlns:xlink="http://www.w3.org/1999/xlink" x="0px" y="0px"
	 viewBox="0 0 100 125" style="enable-background:new 0 0 100 125;" xml:space="preserve">
<style type="text/css">
	.st0{fill:#D80909;}
	.st1{fill:#FFFFFF;}
</style>
<g>
	<circle class="st0" cx="50.5" cy="59.6" r="48"/>
	<g>
		<path class="st1" d="M72.8,85.9c-1.1,0-2.2-0.4-3.1-1.3L25.8,40.7c-1.7-1.7-1.7-4.4,0-6.1c1.7-1.7,4.4-1.7,6.1,0l43.9,43.9
			c1.7,1.7,1.7,4.4,0,6.1C75,85.4,73.9,85.9,72.8,85.9z"/>
		<path class="st1" d="M28.8,85.9c-2.4,0-4.3-1.9-4.3-4.3c0-1.1,0.5-2.2,1.3-3.1l43.9-43.9c1.7-1.7,4.4-1.7,6.1,0
			c1.7,1.7,1.7,4.4,0,6.1L31.9,84.6C31.1,85.4,30,85.9,28.8,85.9z"/>
	</g>
</g>
</svg>
