<?xml version="1.0" encoding="utf-8"?>
<!-- Generator: Adobe Illustrator 24.2.1, SVG Export Plug-In . SVG Version: 6.00 Build 0)  -->
<svg version="1.1" id="Layer_1" xmlns="http://www.w3.org/2000/svg" xmlns:xlink="http://www.w3.org/1999/xlink" x="0px" y="0px"
	 viewBox="0 0 64 80" style="enable-background:new 0 0 64 80;" xml:space="preserve">
<style type="text/css">
	.st0{fill:#0033A0;}
</style>
<g>
	<path class="st0" d="M33,17.2V15h-2v2.2c-1.2,0.4-2,1.5-2,2.8s0.8,2.4,2,2.8V29h2v-6.2c1.2-0.4,2-1.5,2-2.8S34.2,17.6,33,17.2z"/>
	<path class="st0" d="M40,21.2V15h-2v6.2c-1.2,0.4-2,1.5-2,2.8s0.8,2.4,2,2.8V29h2v-2.2c1.2-0.4,2-1.5,2-2.8S41.2,21.6,40,21.2z"/>
	<path class="st0" d="M26,20.2V15h-2v5.2c-1.2,0.4-2,1.5-2,2.8s0.8,2.4,2,2.8V29h2v-3.2c1.2-0.4,2-1.5,2-2.8S27.2,20.6,26,20.2z"/>
	<rect x="31" y="46" class="st0" width="2" height="2"/>
	<rect x="31" y="50" class="st0" width="2" height="2"/>
	<rect x="31" y="54" class="st0" width="2" height="2"/>
	<rect x="27" y="54" class="st0" width="2" height="2"/>
	<polygon class="st0" points="17,55 22,58 22,56 25,56 25,54 22,54 22,52 	"/>
	<rect x="35" y="54" class="st0" width="2" height="2"/>
	<polygon class="st0" points="47,55 42,52 42,54 39,54 39,56 42,56 42,58 	"/>
	<path class="st0" d="M43.3,5l-1.7,1.7C39.9,5.7,38,4.9,36,4.5V2h-8v2.5c-2,0.5-3.9,1.2-5.6,2.3L20.7,5L15,10.7l1.7,1.7
		c-1.1,1.7-1.9,3.6-2.3,5.6H12v8h2.5c0.5,2,1.2,3.9,2.3,5.6L15,33.3l5.7,5.7l1.7-1.7c1.7,1.1,3.6,1.9,5.6,2.3V42h8v-2.5
		c2-0.5,3.9-1.2,5.6-2.3l1.7,1.7l5.7-5.7l-1.7-1.7c1.1-1.7,1.9-3.6,2.3-5.6H52v-8h-2.5c-0.5-2-1.2-3.9-2.3-5.6l1.7-1.7L43.3,5z
		 M32,35c-7.2,0-13-5.8-13-13S24.8,9,32,9s13,5.8,13,13S39.2,35,32,35z"/>
</g>
</svg>
