<?xml version="1.0" encoding="utf-8"?>
<!-- Generator: Adobe Illustrator 24.2.1, SVG Export Plug-In . SVG Version: 6.00 Build 0)  -->
<svg version="1.1" id="Layer_1" xmlns="http://www.w3.org/2000/svg" xmlns:xlink="http://www.w3.org/1999/xlink" x="0px" y="0px"
	 viewBox="0 0 100 125" style="enable-background:new 0 0 100 125;" xml:space="preserve">
<style type="text/css">
	.st0{fill:#0033A0;}
</style>
<g>
	<path class="st0" d="M26.5,49.1c0,0.5-0.4,1-1,1h-8.2c-0.5,0-1-0.4-1-1v-8.2c0-0.5,0.4-1,1-1h8.2c0.5,0,1,0.4,1,1V49.1z"/>
	<path class="st0" d="M40.1,49.1c0,0.5-0.4,1-1,1H31c-0.5,0-1-0.4-1-1v-8.2c0-0.5,0.4-1,1-1h8.2c0.5,0,1,0.4,1,1V49.1z"/>
	<path class="st0" d="M53.8,49.1c0,0.5-0.4,1-1,1h-8.2c-0.5,0-1-0.4-1-1v-8.2c0-0.5,0.4-1,1-1h8.2c0.5,0,1,0.4,1,1V49.1z"/>
	<path class="st0" d="M67.5,49.1c0,0.5-0.4,1-1,1h-8.2c-0.5,0-1-0.4-1-1v-8.2c0-0.5,0.4-1,1-1h8.2c0.5,0,1,0.4,1,1V49.1z"/>
	<path class="st0" d="M26.5,62.6c0,0.5-0.4,1-1,1h-8.2c-0.5,0-1-0.4-1-1v-8.2c0-0.5,0.4-1,1-1h8.2c0.5,0,1,0.4,1,1V62.6z"/>
	<path class="st0" d="M40.1,62.6c0,0.5-0.4,1-1,1H31c-0.5,0-1-0.4-1-1v-8.2c0-0.5,0.4-1,1-1h8.2c0.5,0,1,0.4,1,1V62.6z"/>
	<path class="st0" d="M53.8,62.6c0,0.5-0.4,1-1,1h-8.2c-0.5,0-1-0.4-1-1v-8.2c0-0.5,0.4-1,1-1h8.2c0.5,0,1,0.4,1,1V62.6z"/>
	<path class="st0" d="M74.9,52.4c-10.3,0-18.6,8.4-18.6,18.6s8.4,18.6,18.6,18.6c10.3,0,18.6-8.4,18.6-18.6S85.2,52.4,74.9,52.4z
		 M74.9,85.7c-8,0-14.6-6.5-14.6-14.6s6.5-14.6,14.6-14.6S89.5,63,89.5,71.1S83,85.7,74.9,85.7z"/>
	<path class="st0" d="M80.3,70.9h-3.9v-7.5c0-1.1-0.9-2-2-2c-1.1,0-2,0.9-2,2V73c0,1.1,0.9,2,2,2h6c1.1,0,2-0.9,2-2
		C82.3,71.8,81.4,70.9,80.3,70.9z"/>
	<g>
		<path class="st0" d="M25.7,25.5c-1.1,0-2-0.9-2-2v-6.7c0-1.1,0.9-2,2-2s2,0.9,2,2v6.7C27.7,24.5,26.8,25.5,25.7,25.5z"/>
	</g>
	<g>
		<path class="st0" d="M58.5,25.5c-1.1,0-2-0.9-2-2v-6.7c0-1.1,0.9-2,2-2s2,0.9,2,2v6.7C60.5,24.5,59.6,25.5,58.5,25.5z"/>
	</g>
	<path class="st0" d="M74.9,19.1h-13v4.8c0,1.7-1.5,3-3.4,3c-1.9,0-3.4-1.4-3.4-3v-4.8h-26v4.8c0,1.7-1.5,3-3.4,3s-3.4-1.4-3.4-3
		v-4.8h-13c-1.3,0-2.4,1.2-2.4,2.7v48.8c0,1.5,1.1,2.7,2.4,2.7h42.4c-0.1-0.7-0.1-1.5-0.1-2.2c0-1.1,0.1-2.1,0.2-3.1h-40V35.2h60.7
		v12c0.8-0.1,1.6-0.1,2.4-0.1c0.8,0,1.6,0,2.4,0.1V21.8C77.3,20.3,76.2,19.1,74.9,19.1z"/>
</g>
</svg>
