<?xml version="1.0" encoding="utf-8"?>
<!-- Generator: Adobe Illustrator 24.2.1, SVG Export Plug-In . SVG Version: 6.00 Build 0)  -->
<svg version="1.1" id="Layer_1" xmlns="http://www.w3.org/2000/svg" xmlns:xlink="http://www.w3.org/1999/xlink" x="0px" y="0px"
	 viewBox="0 0 100 125" style="enable-background:new 0 0 100 125;" xml:space="preserve">
<style type="text/css">
	.st0{fill:#0033A0;}
</style>
<g>
	<path class="st0" d="M50,27.5c-5.7,0-10.2,3.5-10.2,10.7s4.6,13,10.2,13s10.2-5.8,10.2-13S55.7,27.5,50,27.5z"/>
	<path class="st0" d="M86.2,46.1c-0.8-7.2-3.6-13.7-7.9-19l4.2-5.2l-4.5-4.5l-5.2,4.2c-5.3-4.3-11.9-7.1-19-7.9l-0.7-6.7h-6.4
		l-0.7,6.7c-7.2,0.8-13.7,3.6-19,7.9l-5.2-4.2l-4.5,4.5l4.2,5.2c-4.3,5.3-7.1,11.9-7.9,19l-6.7,0.7v6.4l6.7,0.7
		c0.8,7.2,3.6,13.7,7.9,19l-4.2,5.2l4.5,4.5l5.2-4.2c5.3,4.3,11.9,7.1,19,7.9l0.7,6.7h6.4l0.7-6.7c7.2-0.8,13.7-3.6,19-7.9l5.2,4.2
		l4.5-4.5l-4.2-5.2c4.3-5.3,7.1-11.9,7.9-19l6.7-0.7v-6.4L86.2,46.1z M68.8,71.3V60.5c0-0.6-0.3-1.1-0.8-1.5l-7.6-5.3
		c-0.6-0.4-1.5-0.4-2.1,0c-2.4,1.8-5.3,2.9-8.4,2.9s-6-1-8.4-2.9c-0.6-0.5-1.4-0.5-2.1,0L31.9,59c-0.5,0.3-0.8,0.9-0.8,1.5v10.9
		c-5.9-5.2-9.6-12.8-9.6-21.3c0-15.7,12.7-28.5,28.5-28.5S78.5,34.3,78.5,50C78.5,58.5,74.7,66.1,68.8,71.3z"/>
</g>
</svg>
